<?xml version="1.0" encoding="utf-8"?>
<!-- Generator: Adobe Illustrator 27.5.0, SVG Export Plug-In . SVG Version: 6.00 Build 0)  -->
<svg version="1.1" xmlns="http://www.w3.org/2000/svg" xmlns:xlink="http://www.w3.org/1999/xlink" x="0px" y="0px"
	 viewBox="0 0 750 500" style="enable-background:new 0 0 750 500;" xml:space="preserve">
<g id="BACKGROUND">
	<rect style="fill:#FFFFFF;" width="750" height="500"/>
</g>
<g id="OBJECTS">
	<g style="opacity:0.72;">
		<path style="fill:#CFE5F1;" d="M170.343,369.663c-20.898-5.664-75.129,5.435-80.94-36.688
			c-2.695-19.536,16.599-36.104,17.568-55.801c2.709-55.035-38.673-69.153-25.667-101.623c7.151-17.852,50.278-19.101,64.074-32.497
			c20.891-20.284,17.043-61.141,45.561-67.022c25.996-5.361,52.328,16.484,78.018,9.806c18.941-4.924,30.686-23.599,47.315-33.917
			c16.863-10.463,39.152-11.552,56.955-2.783c21.195,10.44,35.074,33.039,57.28,41.11c34.271,12.457,73.367-14.456,107.923-2.815
			c27.175,9.155,41.955,38.938,67.007,52.89c13.111,7.302,28.287,9.838,42.26,15.311c13.973,5.474,27.811,15.406,31.013,30.068
			c3.206,14.682-5.221,29.441-15.354,40.54c-10.133,11.098-22.439,20.522-29.885,33.576c-9.411,16.499-9.775,36.397-11.498,55.313
			c-1.357,14.888-3.795,29.981-10.609,43.287c-6.814,13.306-18.628,24.72-33.231,27.919c-18.02,3.947-36.567-4.911-54.951-3.393
			c-33.795,2.79-59.654,39.452-93.405,36.174c-19.658-1.909-34.99-16.976-50.478-29.232c-15.488-12.257-36.513-22.679-54.301-14.097
			c-6.339,3.058-12.845,6.802-16.914,12.545c-21.762,30.713-52.497,29.722-78.498,17.952c-15.561-7.044-32.615-36.578-58.753-36.895
			"/>
	</g>
	<g>
		<g>
			<path style="fill:#5FBAB0;" d="M307.795,227.964c-4.688-0.241-8.747-0.64-11.781-3.366c-2.432-2.185-3.38-6.702-1.683-9.497
				c2.044-3.366,4.96-3.007,6.408-5.603c1.166-2.09,0.935-3.924,0.294-6.397c-0.691-2.665-0.931-4.949,0.031-7.233
				c1.077-2.558,3.486-3.366,5.89-3.366c3.196,0,6.371,2.404,6.491,6.732c0.089,3.195-2.02,7.594-0.601,10.458
				c0.986,1.989,3.213,2.712,4.582,4.459c2.863,3.652,3.365,8.902-0.375,11.649C314.346,227.787,311.04,227.964,307.795,227.964"/>
		</g>
		<g>
			<path style="fill:#5FBAB0;" d="M292.254,240.173c-0.167,4.761-1.295,8.103-4.678,9.857c-1.165,0.604-3.174,0.752-4.868,0.064
				c-1.196-0.485-1.997-1.583-2.888-2.516c-0.428-0.448-0.949-0.882-1.568-0.91c-0.617-0.028-1.186,0.365-1.573,0.846
				c-0.387,0.482-0.638,1.056-0.964,1.582c-1.367,2.208-4.096,3.429-6.68,3.163c-2.583-0.265-4.939-1.924-6.236-4.174
				c-1.296-2.25-1.565-5.026-0.921-7.542c0.651-2.544,2.455-5.005,5.03-5.518c2.479-0.493,5.059,0.892,7.526,0.342
				c3.32-0.74,5.12-4.626,8.368-5.638c2.481-0.773,5.286,0.423,6.929,2.436c1.643,2.013,2.278,4.686,2.369,7.283
				c0.025,0.719,0.012,1.439-0.066,2.154"/>
		</g>
		<g>
			<path style="fill:#5FBAB0;" d="M318.31,247.329c-3.645-2.842-4.823-8.41-2.64-12.484c0.653-1.219,1.629-2.343,2.939-2.785
				c1.347-0.454,2.816-0.126,4.205,0.174c2.556,0.551,5.29,0.984,7.729,0.041c2.116-0.818,3.922-2.639,6.191-2.661
				c1.818-0.018,3.466,1.187,4.495,2.686c1.918,2.794,1.969,6.747,0.124,9.59c-1.845,2.843-5.477,4.405-8.81,3.791
				c-1.868-0.345-3.696-1.308-5.568-0.982c-1.704,0.296-3.028,1.591-4.525,2.457c-1.496,0.866-3.677,1.186-4.742-0.177"/>
		</g>
		<g>
			<g>
				<path style="fill:#FFFFFF;" d="M306.803,261.717c0.047-6.925,0.093-13.851,0.14-20.776c0.074-11.035,0.149-22.07,0.223-33.105
					c0.017-2.528,0.034-5.057,0.051-7.585c0.002-0.322-0.498-0.322-0.5,0c-0.047,6.925-0.093,13.851-0.14,20.776
					c-0.074,11.035-0.149,22.07-0.223,33.105c-0.017,2.528-0.034,5.057-0.051,7.585
					C306.301,262.039,306.801,262.039,306.803,261.717L306.803,261.717z"/>
			</g>
		</g>
		<g>
			<g>
				<path style="fill:#FFFFFF;" d="M303.288,260.146c0.003-3.627-0.598-7.226-1.841-10.637c-1.145-3.142-2.706-6.385-5.431-8.444
					c-4.802-3.629-11.655-3.769-16.732-0.64c-0.273,0.168-0.023,0.601,0.252,0.432c5.117-3.153,12.119-2.881,16.757,1.067
					c2.444,2.08,3.883,5.38,4.895,8.355c1.083,3.182,1.603,6.51,1.6,9.868C302.787,260.468,303.287,260.469,303.288,260.146
					L303.288,260.146z"/>
			</g>
		</g>
		<g>
			<g>
				<path style="fill:#FFFFFF;" d="M310.721,260.146c-0.003-3.283,0.493-6.537,1.528-9.656c1.014-3.055,2.477-6.425,4.967-8.567
					c4.613-3.969,11.66-4.208,16.757-1.067c0.275,0.169,0.526-0.263,0.252-0.432c-5.077-3.129-11.931-2.99-16.732,0.64
					c-2.726,2.061-4.283,5.302-5.431,8.444c-1.246,3.41-1.845,7.011-1.841,10.637C310.222,260.468,310.722,260.469,310.721,260.146
					L310.721,260.146z"/>
			</g>
		</g>
		<path style="fill:#D24433;" d="M306.78,287.229L306.78,287.229c-9.214,0-16.683-7.469-16.683-16.683v-10.685h33.367v10.685
			C323.463,279.759,315.994,287.229,306.78,287.229z"/>
		<g>
			<g>
				<path style="fill:#FFFFFF;" d="M313.341,265.76c2.124,0.002,4.249,0.003,6.373,0.005c0.362,0,0.362-0.562,0-0.562
					c-2.125-0.002-4.249-0.003-6.373-0.005C312.979,265.198,312.978,265.76,313.341,265.76L313.341,265.76z"/>
			</g>
		</g>
		<g>
			<g>
				<path style="fill:#FFFFFF;" d="M306.217,265.755c1.5,0.001,2.999,0.002,4.499,0.004c0.362,0,0.363-0.562,0-0.562
					c-1.5-0.001-2.999-0.002-4.499-0.004C305.856,265.192,305.855,265.754,306.217,265.755L306.217,265.755z"/>
			</g>
		</g>
		<g>
			<g>
				<path style="fill:#FFFFFF;" d="M291.222,265.743c4.249,0.003,8.497,0.007,12.746,0.01c0.362,0,0.363-0.562,0-0.562
					c-4.249-0.003-8.497-0.007-12.746-0.01C290.861,265.18,290.86,265.742,291.222,265.743L291.222,265.743z"/>
			</g>
		</g>
	</g>
	<g>
		<polygon style="fill:#D24433;" points="298.72,292.103 317.84,433.816 321.214,433.816 307.342,291.353 		"/>
		<polyline points="307.342,291.353 301.906,312.816 298.72,292.103 		"/>
		<polygon style="fill:#D24433;" points="512.415,298.851 493.295,433.816 489.921,433.816 503.793,298.101 		"/>
		<polyline points="545.032,291.353 543.158,312.535 554.405,291.165 		"/>
	</g>
	<polygon style="fill:#E89C3B;" points="564.152,293.602 291.971,293.602 289.722,285.354 566.402,285.354 	"/>
	<g>
		<rect x="397.981" y="251.862" style="fill:#0E133A;" width="26.904" height="29.306"/>
		<path style="fill:#0E133A;" d="M448.038,285.492h-73.266c0,0,1.109-7.687,36.661-7.687S448.038,285.492,448.038,285.492z"/>
		<path style="fill:#0E133A;" d="M468.972,265.191H353.893c-2.873,0-5.203-2.329-5.203-5.203v-70.933
			c0-2.873,2.329-5.203,5.203-5.203h115.079c2.873,0,5.203,2.329,5.203,5.203v70.933
			C474.175,262.861,471.846,265.191,468.972,265.191z"/>
		<rect x="354.516" y="189.639" style="fill:#FFFFFF;" width="113.833" height="59.107"/>
		<rect x="354.516" y="189.639" style="fill:#D24433;" width="113.833" height="7.391"/>
		<circle style="fill:none;stroke:#FFFFFF;stroke-width:0.8;stroke-miterlimit:10;" cx="411.433" cy="256.806" r="3.843"/>
		<path style="fill:#FFFFFF;" d="M454.899,193.044c0,0.841-0.681,1.522-1.522,1.522c-0.841,0-1.522-0.682-1.522-1.522
			s0.681-1.522,1.522-1.522C454.218,191.522,454.899,192.204,454.899,193.044z"/>
		<path style="fill:#FFFFFF;" d="M459.964,193.044c0,0.841-0.682,1.522-1.522,1.522c-0.841,0-1.522-0.682-1.522-1.522
			s0.682-1.522,1.522-1.522C459.282,191.522,459.964,192.204,459.964,193.044z"/>
		<path style="fill:#FFFFFF;" d="M464.862,193.044c0,0.841-0.682,1.522-1.522,1.522c-0.841,0-1.522-0.682-1.522-1.522
			s0.682-1.522,1.522-1.522C464.181,191.522,464.862,192.204,464.862,193.044z"/>
		<g>
			<g>
				<path style="fill:#EEEEF1;" d="M397.986,265.716c7.835,0.027,15.669,0.055,23.504,0.082c1.132,0.004,2.263,0.008,3.395,0.012
					c0.384,0.001,0.385-0.596,0-0.597c-7.835-0.027-15.669-0.054-23.504-0.082c-1.132-0.004-2.263-0.008-3.395-0.012
					C397.602,265.117,397.601,265.715,397.986,265.716L397.986,265.716z"/>
			</g>
		</g>
		<g>
			<g>
				<path style="fill:#EEEEF1;" d="M397.986,278.571c7.835,0.027,15.669,0.055,23.504,0.082c1.132,0.004,2.263,0.008,3.395,0.012
					c0.384,0.001,0.385-0.596,0-0.597c-7.835-0.027-15.669-0.055-23.504-0.082c-1.132-0.004-2.263-0.008-3.395-0.012
					C397.602,277.972,397.601,278.57,397.986,278.571L397.986,278.571z"/>
			</g>
		</g>
		<circle style="fill:#5FBAB0;" cx="411.285" cy="221.339" r="20.807"/>
		<polyline style="fill:none;stroke:#FFFFFF;stroke-width:3.7831;stroke-miterlimit:10;" points="402.142,220.394 409.078,227.329 
			422.004,214.404 		"/>
		<g>
			<defs>
				<rect id="SVGID_1_" x="354.516" y="189.639" width="113.833" height="59.107"/>
			</defs>
			<clipPath id="SVGID_00000166638889887474521730000007083110521188945310_">
				<use xlink:href="#SVGID_1_"  style="overflow:visible;"/>
			</clipPath>
			
				<linearGradient id="SVGID_00000083781399550335216230000005817235006345506493_" gradientUnits="userSpaceOnUse" x1="438.6057" y1="163.1456" x2="342.9538" y2="258.7975" gradientTransform="matrix(1.214 0.214 0.214 1.214 -125.088 -125.0892)">
				<stop  offset="0" style="stop-color:#FFFFFF"/>
				<stop  offset="1" style="stop-color:#FFFFFF;stop-opacity:0"/>
			</linearGradient>
			
				<polygon style="clip-path:url(#SVGID_00000166638889887474521730000007083110521188945310_);fill:url(#SVGID_00000083781399550335216230000005817235006345506493_);" points="
				432.292,156.831 336.64,252.483 356.641,272.484 452.293,176.832 			"/>
			
				<linearGradient id="SVGID_00000049930692022268465120000008536077344307831732_" gradientUnits="userSpaceOnUse" x1="474.1483" y1="141.7242" x2="373.3247" y2="242.5477" gradientTransform="matrix(0.7496 -0.2748 -0.2748 0.7496 178.4443 179.7557)">
				<stop  offset="0" style="stop-color:#FFFFFF"/>
				<stop  offset="1" style="stop-color:#FFFFFF;stop-opacity:0"/>
			</linearGradient>
			
				<polygon style="clip-path:url(#SVGID_00000166638889887474521730000007083110521188945310_);fill:url(#SVGID_00000049930692022268465120000008536077344307831732_);" points="
				464.424,180.378 367.398,277.404 369.838,286.592 471.176,184.88 			"/>
		</g>
	</g>
	<g>
		<path style="fill:#E89C3B;" d="M537.49,359.011l-3.865,70.9c0,0,25.673-2.744,27.984,5.476h-60.967c0,0,4.456-5.476,26.565-5.476
			l-5.126-70.9H537.49z"/>
		<polygon style="fill:#0E133A;" points="535.413,375.652 524.707,393.578 522.724,371.838 		"/>
		<g>
			<path style="fill:#0E133A;" d="M490.786,306.582c27.257-28.728,22.297-57.8,45.513-67.654
				c17.939-7.614,42.404-2.77,52.349,32.905c13.707,49.167,4.166,95.734-53.876,103.944c-25.588,3.619-49.565-5.791-56.516-18.449
				C471.304,344.669,467.124,331.521,490.786,306.582z"/>
		</g>
	</g>
	<g>
		<g>
			<g>
				<path style="fill:#D24433;" d="M488.89,266.64h0.758c2.739,0,4.967,2.228,4.967,4.967v3.899c0,2.127-1.344,3.945-3.226,4.651
					l-0.418-2.529c0.708-0.443,1.182-1.228,1.182-2.123v-3.899c0-1.381-1.124-2.505-2.505-2.505h-0.087l-0.401-2.422v2.422h-0.271
					c-1.381,0-2.505,1.124-2.505,2.505v3.899c0,1.381,1.124,2.505,2.505,2.505h0.271v2.422h1.108c-0.203,0.025-0.41,0.04-0.62,0.04
					h-0.758c-2.739,0-4.967-2.228-4.967-4.967v-3.899C483.923,268.868,486.151,266.64,488.89,266.64z"/>
				<path style="fill:#0E133A;" d="M489.161,278.01h0.487c0.486,0,0.938-0.142,1.323-0.382l0.418,2.529
					c-0.356,0.134-0.732,0.227-1.121,0.276h-1.108V278.01z"/>
				<polygon style="fill:#161D24;" points="489.161,266.68 489.561,269.102 489.161,269.102 				"/>
			</g>
			<path style="fill:#D24433;" d="M484.108,286.228h-7.448c-2.934,0-5.312-2.378-5.312-5.312v-16.922h18.072v16.922
				C489.42,283.849,487.042,286.228,484.108,286.228z"/>
			<ellipse style="fill-rule:evenodd;clip-rule:evenodd;fill:#982AE8;" cx="480.384" cy="263.881" rx="9.036" ry="0.796"/>
			<ellipse style="fill-rule:evenodd;clip-rule:evenodd;fill:#161D24;" cx="480.384" cy="263.881" rx="9.036" ry="0.796"/>
			<g>
				<path style="fill:#D24433;" d="M471.944,264.165c-0.383-0.088-0.596-0.184-0.596-0.284c0-0.44,4.046-0.796,9.036-0.796
					c4.99,0,9.036,0.356,9.036,0.796c0,0.1-0.212,0.196-0.596,0.284c-1.299-0.299-4.587-0.511-8.44-0.511
					C476.531,263.653,473.243,263.866,471.944,264.165z"/>
				<path style="fill:#2D1558;" d="M471.944,264.165c1.3-0.299,4.587-0.511,8.441-0.511c3.853,0,7.141,0.213,8.44,0.511
					c-1.299,0.299-4.587,0.512-8.44,0.512C476.531,264.676,473.243,264.464,471.944,264.165z"/>
			</g>
		</g>
		<g>
			<g>
				<path style="fill:#CFDADD;" d="M479.648,260.422c0.427,0.476,1.27,0.314,1.685-0.173c0.415-0.487,0.503-1.168,0.519-1.808
					c0.016-0.639-0.019-1.299,0.21-1.897c0.475-1.238,2.022-2.089,1.867-3.405c-0.091-0.769-0.75-1.319-1.239-1.918
					c-0.721-0.885-1.124-2.022-1.122-3.163c0.003-1.865,1.044-3.627,0.965-5.49c-0.107-2.541-2.308-4.575-4.699-5.443
					c-1.873-0.68-4.102-0.78-5.743,0.351c-1.678,1.157-2.365,3.555-1.554,5.424c0.557,1.286,1.675,2.224,2.656,3.224
					c0.982,1,1.904,2.232,1.883,3.634c-0.017,1.131-0.652,2.266-0.314,3.345c0.405,1.292,1.982,1.827,2.68,2.987
					c0.468,0.777,0.482,1.734,0.696,2.615c0.214,0.882,0.79,1.82,1.694,1.897"/>
			</g>
			<g>
				<path style="fill:#CFDADD;" d="M475.919,257.092c-0.036,0.144-0.073,0.289-0.109,0.434c-0.457-0.05-0.896-0.249-1.234-0.561
					c-0.177-0.163-0.335-0.38-0.322-0.621c0.024-0.482,0.729-0.658,1.125-0.383c0.396,0.276,0.543,0.783,0.664,1.25"/>
			</g>
			<g>
				<path style="fill:#CFDADD;" d="M485.249,256.871c-0.149,0.283-0.306,0.574-0.559,0.77c-0.253,0.196-0.63,0.269-0.891,0.084
					c-0.381-0.271-0.282-0.874-0.03-1.268c0.107-0.168,0.242-0.328,0.423-0.409c0.446-0.2,1.02,0.295,0.888,0.766"/>
			</g>
			<g>
				<path style="fill:#CFDADD;" d="M483.339,259.36c-0.053,0.221-0.41,0.27-0.529,0.076c-0.119-0.194,0.068-0.484,0.294-0.468
					c0.227,0.016,0.374,0.312,0.26,0.509"/>
			</g>
			<g>
				<g>
					
						<linearGradient id="SVGID_00000165944349212678237620000014193574496275884209_" gradientUnits="userSpaceOnUse" x1="479.6922" y1="257.9316" x2="485.8574" y2="236.1165" gradientTransform="matrix(-0.9967 -0.0808 -0.0808 0.9967 974.5291 19.6632)">
						<stop  offset="0" style="stop-color:#FFFFFF"/>
						<stop  offset="1" style="stop-color:#FFFFFF;stop-opacity:0"/>
					</linearGradient>
					<path style="fill:url(#SVGID_00000165944349212678237620000014193574496275884209_);" d="M479.648,260.422
						c0.427,0.476,1.27,0.314,1.685-0.173c0.415-0.487,0.503-1.168,0.519-1.808c0.016-0.639-0.019-1.299,0.21-1.897
						c0.475-1.238,2.022-2.089,1.867-3.405c-0.091-0.769-0.75-1.319-1.239-1.918c-0.721-0.885-1.124-2.022-1.122-3.163
						c0.003-1.865,1.044-3.627,0.965-5.49c-0.107-2.541-2.308-4.575-4.699-5.443c-1.873-0.68-4.102-0.78-5.743,0.351
						c-1.678,1.157-2.365,3.555-1.554,5.424c0.557,1.286,1.675,2.224,2.656,3.224c0.982,1,1.904,2.232,1.883,3.634
						c-0.017,1.131-0.652,2.266-0.314,3.345c0.405,1.292,1.982,1.827,2.68,2.987c0.468,0.777,0.482,1.734,0.696,2.615
						c0.214,0.882,0.79,1.82,1.694,1.897"/>
				</g>
				<g>
					<path style="fill:#FFFFFF;" d="M475.919,257.092c-0.036,0.144-0.073,0.289-0.109,0.434c-0.457-0.05-0.896-0.249-1.234-0.561
						c-0.177-0.163-0.335-0.38-0.322-0.621c0.024-0.482,0.729-0.658,1.125-0.383c0.396,0.276,0.543,0.783,0.664,1.25"/>
				</g>
				<g>
					<path style="fill:#FFFFFF;" d="M485.249,256.871c-0.149,0.283-0.306,0.574-0.559,0.77c-0.253,0.196-0.63,0.269-0.891,0.084
						c-0.381-0.271-0.282-0.874-0.03-1.268c0.107-0.168,0.242-0.328,0.423-0.409c0.446-0.2,1.02,0.295,0.888,0.766"/>
				</g>
				<g>
					
						<linearGradient id="SVGID_00000166655904455970703880000018389401186569741229_" gradientUnits="userSpaceOnUse" x1="469.1988" y1="282.3087" x2="478.5135" y2="255.2778" gradientTransform="matrix(-0.9967 -0.0808 -0.0808 0.9967 974.5291 19.6632)">
						<stop  offset="0" style="stop-color:#FFFFFF"/>
						<stop  offset="1" style="stop-color:#FFFFFF;stop-opacity:0"/>
					</linearGradient>
					<path style="fill:url(#SVGID_00000166655904455970703880000018389401186569741229_);" d="M483.339,259.36
						c-0.053,0.221-0.41,0.27-0.529,0.076c-0.119-0.194,0.068-0.484,0.294-0.468c0.227,0.016,0.374,0.312,0.26,0.509"/>
				</g>
			</g>
		</g>
	</g>
	<g>
		<g>
			<path style="fill:#0E133A;" d="M542.194,222.427c-1.741,0.061-2.955-1.647-3.822-3.157c-1.984-3.451-3.98-7.035-4.454-10.987
				c-0.474-3.952,0.946-8.402,4.411-10.361c4.397-2.485,10.549-0.337,14.556-3.412c4.073-3.125,3.741-10.071,8.075-12.821
				c6.034-3.828,14.398,4.129,20.748,0.853c2.216-1.143,3.573-3.409,5.203-5.296c1.63-1.888,4.063-3.567,6.461-2.882
				c2.725,0.778,3.793,4.374,2.796,7.026c-0.997,2.653-3.401,4.493-5.796,6.008c-2.395,1.516-4.967,2.918-6.679,5.177
				c-2.409,3.18-2.669,7.422-3.383,11.348c-0.713,3.925-2.387,8.223-6.102,9.678c-3.497,1.37-7.899-0.203-10.945,1.995
				c-1.379,0.996-1.899,4.121-2.762,5.588c-1.538,2.613-3.207,4.299-6.131,5.1c-2.925,0.801-7.365-1.681-7.552-4.708"/>
		</g>
		<path style="fill:#0E133A;" d="M473.588,422.441l3.512,11.999c0,0-6.036,7.939-21.566,14.152l7.435-12.875l-2.056-11.871
			L473.588,422.441z"/>
		<path style="fill:#0E133A;" d="M456.085,421.402l1.857,12.364c0,0-7.054,7.05-23.281,11.106l9.108-11.751l-0.432-12.04
			L456.085,421.402z"/>
		<path style="fill:#D24433;" d="M549.887,228.702c-3.983,0.12-10.533-1.348-10.533-1.348c-14.577-0.976-17.883,9.946-20.912,21.885
			c-1.434,5.654-1.153,8.466-0.31,12.965c1.125,3.374,3.374,5.877,3.374,7.311c0,7.592-6.467,23.338-6.467,23.338
			c10.685,7.311,47.8,6.186,47.8,6.186C562.84,299.038,585.897,227.619,549.887,228.702z"/>
		<path style="fill:#84C7EB;" d="M509.568,300.049l5.106-7.958c27.483,6.342,48.624,4.228,48.624,4.228
			c4.228,8.456,2.87,20.162,2.87,20.162s0.609,29.213-41.385,34.082c-41.993,4.869-54.774,18.258-45.036,77.901
			c0,0-9.129,6.695-21.91,1.826c0,0-7.912,1.826-16.432-2.434c0,0-35.904-69.242,0.003-107.584
			C461.225,299.112,509.568,300.049,509.568,300.049z"/>
		<g>
			<g>
				<path style="fill:#FFFFFF;" d="M558.477,296.791c0.732,2.797,1.353,5.624,1.568,8.513c0.169,2.282-0.071,4.506-0.098,6.78
					c-0.006,0.485,0.024,0.963-0.014,1.45c-0.227,2.904-1.403,5.704-3.009,8.106c-3.151,4.716-8.043,8.027-13.103,10.41
					c-8.147,3.838-16.943,5.238-25.742,6.708c-10.499,1.754-21.49,4.061-30.583,9.881c-8.709,5.575-14.059,14.285-16.401,24.251
					c-1.605,6.828-1.977,13.913-1.809,20.905c0.227,9.414,1.45,18.794,3.072,28.06c0.498,2.846,1.041,5.684,1.614,8.516
					c0.079,0.389,0.674,0.224,0.595-0.164c-2.072-10.225-3.758-20.565-4.422-30.986c-0.482-7.564-0.456-15.247,0.847-22.733
					c1.822-10.472,6.542-20.145,15.398-26.365c8.797-6.178,19.728-8.654,30.147-10.477c8.578-1.501,17.151-2.667,25.261-6.031
					c5.436-2.255,10.757-5.407,14.481-10.059c2.035-2.542,3.585-5.548,4.118-8.783c0.128-0.776,0.186-1.55,0.187-2.335
					c0.003-2.651,0.27-5.258,0.012-7.917c-0.26-2.675-0.843-5.298-1.522-7.894C558.972,296.242,558.376,296.405,558.477,296.791
					L558.477,296.791z"/>
			</g>
		</g>
		<g>
			<g>
				<path style="fill:#FFFFFF;" d="M546.849,296.85c1.724,5.304,7.888,8.421,13.178,6.612c0.374-0.128,0.213-0.724-0.164-0.595
					c-4.962,1.697-10.793-1.18-12.419-6.181C547.322,296.31,546.725,296.471,546.849,296.85L546.849,296.85z"/>
			</g>
		</g>
		<g>
			<g>
				<path style="fill:#FFFFFF;" d="M542.391,296.684c1.703,7.72,10.39,13.311,18.136,11.319c0.385-0.099,0.222-0.695-0.164-0.596
					c-7.434,1.912-15.747-3.499-17.376-10.887C542.901,296.131,542.306,296.296,542.391,296.684L542.391,296.684z"/>
			</g>
		</g>
		<g>
			<g>
				<path style="fill:#EEEEF1;" d="M512.709,295.411c2.375,0.251,4.644-0.243,6.291-2.066c0.257-0.285-0.164-0.708-0.422-0.422
					c-1.551,1.717-3.642,2.126-5.868,1.891C512.327,294.773,512.33,295.371,512.709,295.411L512.709,295.411z"/>
			</g>
		</g>
		<g>
			<g>
				<path style="fill:#EEEEF1;" d="M510.693,298.699c4.591,0.71,9.165-0.814,12.009-4.571c0.232-0.307-0.286-0.605-0.516-0.302
					c-2.667,3.524-7.035,4.962-11.334,4.297C510.476,298.065,510.314,298.64,510.693,298.699L510.693,298.699z"/>
			</g>
		</g>
		<path style="fill:#E89C3B;" d="M539.555,228.712l0.796-2.695c0,0-7.113-0.062-5.844-5.983c2.211-10.315,2.217-13.239,7.13-15.457
			c4.913-2.218,14.735,4.695,12.192,13.18l-3.373,12.403c0,0-1.88,0.983-5.146,0.604
			C541.886,230.366,539.555,228.712,539.555,228.712z"/>
		<path style="fill:#0E133A;" d="M542.929,215.217c-0.112,0.409-0.352,0.699-0.536,0.647c-0.184-0.052-0.243-0.425-0.131-0.834
			c0.112-0.409,0.352-0.699,0.536-0.647C542.982,214.434,543.041,214.808,542.929,215.217z"/>
		<path style="fill:#0E133A;" d="M537.678,213.713c-0.112,0.409-0.352,0.699-0.536,0.647c-0.184-0.051-0.243-0.425-0.131-0.834
			c0.112-0.409,0.352-0.699,0.536-0.647C537.731,212.93,537.79,213.304,537.678,213.713z"/>
		<path style="fill:#0E133A;" d="M540.121,225.984c0,0,3.61,0.232,6.518-1.79l-7.22,4.625L540.121,225.984z"/>
		<path style="fill:#0E133A;" d="M550.67,218.79c0.101-2.013-1.472-3.742-3.514-3.862c-2.041-0.12-3.778,1.415-3.879,3.428
			c-0.101,2.013,1.472,3.742,3.514,3.862C548.833,222.338,550.569,220.803,550.67,218.79z"/>
		<g>
			<path style="fill:#0E133A;" d="M536.774,217.078c0.053-1.063-0.368-2.039-1.071-2.748c-0.344,1.607-0.717,3.474-1.195,5.704
				c-0.016,0.074-0.016,0.137-0.029,0.209C535.763,219.734,536.701,218.537,536.774,217.078z"/>
		</g>
		<polygon style="fill:#0E133A;" points="539.901,211.468 540.864,211.663 539.832,216.986 537.522,216.518 		"/>
		<path style="fill:#0E133A;" d="M544.633,211.875c-0.107,0.267-0.578,0.328-1.053,0.137c-0.475-0.191-0.773-0.563-0.666-0.83
			c0.107-0.267,0.578-0.328,1.053-0.137C544.441,211.236,544.74,211.608,544.633,211.875z"/>
		<path style="fill:#0E133A;" d="M539.1,210.191c0.035,0.287-0.347,0.564-0.853,0.618c-0.506,0.054-0.945-0.134-0.981-0.421
			c-0.035-0.287,0.347-0.564,0.853-0.618C538.626,209.715,539.065,209.904,539.1,210.191z"/>
		<g>
			<path style="fill:#0E133A;" d="M539.614,203.9c-0.619,1.121,0.372,2.545,1.569,3c1.197,0.455,2.529,0.307,3.798,0.482
				c1.269,0.175,2.657,0.88,2.878,2.142c0.22,1.254-0.743,2.793,0.166,3.686c0.888,0.873,2.625,0.017,3.526,0.876
				c0.695,0.662,0.484,2.012,1.316,2.49c0.686,0.394,1.602-0.2,1.827-0.959c0.226-0.758-0.026-1.569-0.295-2.313
				c-0.923-2.545-2.127-5.065-4.08-6.94c-1.954-1.875-4.784-3.01-7.416-2.372"/>
		</g>
		<g>
			<g>
				<path style="fill:#FFFFFF;" d="M458.1,430.136c-3.043-6.929-5.117-14.408-6.761-21.772c-3.401-15.237-4.499-31.406-0.881-46.709
					c1.807-7.645,4.771-15.112,9.359-21.526c3.752-5.246,8.51-9.724,13.832-13.351c9.234-6.293,19.999-10.106,30.908-12.262
					c3.995-0.79,8.035-1.359,12.093-1.695c2.003-0.166,4.043-0.099,6.037-0.296c0.088-0.009,0.181-0.001,0.27,0
					c0.392,0.004,0.392-0.604,0-0.609c-5.147-0.058-10.365,0.592-15.428,1.44c-10.834,1.816-21.575,5.199-31.03,10.875
					c-5.342,3.207-10.248,7.173-14.315,11.904c-4.768,5.546-8.169,12.028-10.489,18.945c-5.188,15.471-4.921,32.323-2.005,48.221
					c1.107,6.038,2.613,12.006,4.487,17.851c0.955,2.979,1.949,5.992,3.214,8.859c0.063,0.143,0.121,0.288,0.184,0.431
					C457.732,430.801,458.256,430.492,458.1,430.136L458.1,430.136z"/>
			</g>
		</g>
		<path style="fill:#E89C3B;" d="M557.209,219.458c0.088-1.764-1.29-3.279-3.079-3.384c-1.789-0.105-3.31,1.24-3.398,3.003
			c-0.088,1.764,1.29,3.279,3.079,3.384C555.599,222.567,557.12,221.222,557.209,219.458z"/>
		<g>
			<g>
				<path style="fill:#0E133A;" d="M554.709,217.73c-1.129-0.232-2.31,0.502-2.497,1.665c-0.042,0.264,0.363,0.378,0.405,0.112
					c0.148-0.925,1.057-1.561,1.98-1.372C554.861,218.189,554.974,217.784,554.709,217.73L554.709,217.73z"/>
			</g>
		</g>
		<g>
			<g>
				<path style="fill:#EEEEF1;" d="M525.961,294.149c-1.394,4.775-1.981,9.714-1.742,14.683c0.018,0.383,0.616,0.385,0.597,0
					c-0.237-4.918,0.341-9.798,1.721-14.524C526.646,293.938,526.069,293.78,525.961,294.149L525.961,294.149z"/>
			</g>
		</g>
		<g>
			<path style="fill:#0E133A;" d="M539.802,219.952c-0.485,0.016-1.27-0.247-1.558-0.769c-0.102-0.185-0.273-0.591,0.09-0.761
				c0.363-0.171,0.8,0.215,1.233,0.197c0.424-0.017,0.953-0.638,1.496-0.429c0.407,0.157,0.566,0.406,0.534,0.753
				c-0.048,0.516-0.764,1.029-1.719,1.026"/>
		</g>
		<path style="fill:#E89C3B;" d="M533.054,228.161c0,0-20.174-2.593-30.602-16.539c-10.427-13.946,0.312-30.332,5.13-35.359
			l-9.332-12.909c0,0-13.178,8.834-18.256,26.289c-5.891,20.248,2.939,47.552,38.281,57.231L533.054,228.161z"/>
		<path style="fill:#E89C3B;" d="M494.895,166.094c3.458-3.231,8.889-6.908,10.661-5.48c0.369,0.298,0.529,0.75,0.6,1.195
			c1.025-0.481,2.107-0.741,2.854,0c0.556,0.552,0.586,1.296,0.426,2.059c0.954-0.338,1.898-0.557,2.577,0.117
			c0.588,0.584,0.675,1.343,0.463,2.147c0.766-0.053,1.755,0.142,2.231,1.001c0.643,1.163-0.453,2.192-2.237,3.929
			c-1.511,1.471-4.259,4.322-6.279,6.751"/>
		<g>
			<g>
				<path style="fill:#15142A;" d="M509.142,169.135c1.015-1.102,2.159-2.05,3.429-2.845c0.209-0.131,0.016-0.464-0.194-0.332
					c-1.297,0.812-2.47,1.78-3.507,2.906C508.703,169.045,508.974,169.317,509.142,169.135L509.142,169.135z"/>
			</g>
		</g>
		<g>
			<g>
				<path style="fill:#15142A;" d="M502.908,164.572c1.016-1.102,2.159-2.05,3.429-2.845c0.209-0.131,0.016-0.464-0.194-0.332
					c-1.297,0.813-2.47,1.78-3.507,2.906C502.468,164.482,502.74,164.755,502.908,164.572L502.908,164.572z"/>
			</g>
		</g>
		<g>
			<g>
				<path style="fill:#15142A;" d="M506.238,166.817c1.015-1.103,2.149-2.065,3.42-2.862c0.209-0.131,0.016-0.464-0.194-0.332
					c-1.298,0.814-2.461,1.795-3.497,2.922C505.799,166.727,506.07,166.999,506.238,166.817L506.238,166.817z"/>
			</g>
		</g>
		<path style="fill:#D24433;" d="M521.788,251.8c-20.995-8.998-29.595-18.903-29.595-18.903
			c10.487-6.882,13.975-17.317,13.975-17.317c11.683,7.352,17.166,5.571,33.474,11.757L521.788,251.8z"/>
		<g>
			<g>
				<path style="fill:#EEEEF1;" d="M511.179,218.962c-2.28,7.414-7.076,14.007-13.74,18.054c-0.328,0.199-0.028,0.716,0.302,0.516
					c6.798-4.129,11.689-10.848,14.015-18.411C511.868,218.753,511.292,218.595,511.179,218.962L511.179,218.962z"/>
			</g>
		</g>
		<path style="fill:#E89C3B;" d="M570.243,236.176c0,0,12.64,5.226,28.392-1.462c15.753-6.688,14.341-26.443,12.587-33.292
			l14.304-6.356c0,0,7.163,14.473,3.156,32.225c-4.649,20.592-25.452,39.681-60.736,29.78L570.243,236.176z"/>
		<path style="fill:#E89C3B;" d="M627.113,199.177c-1.44-4.589-4.375-10.585-6.597-10.265c-0.463,0.067-0.819,0.377-1.096,0.725
			c-0.657-0.947-1.469-1.733-2.473-1.477c-0.748,0.191-1.132,0.819-1.361,1.563c-0.664-0.786-1.377-1.465-2.289-1.232
			c-0.791,0.202-1.232,0.814-1.436,1.62c-0.638-0.442-1.589-0.785-2.415-0.286c-1.117,0.675-0.663,2.134,0.046,4.562
			c0.601,2.056,1.608,5.949,2.189,9.098"/>
		<g>
			<g>
				<path style="fill:#15142A;" d="M613.673,194.341c-0.36-1.516-0.909-2.956-1.639-4.332c-0.116-0.219-0.448-0.025-0.332,0.194
					c0.715,1.348,1.248,2.756,1.6,4.24C613.359,194.684,613.73,194.582,613.673,194.341L613.673,194.341z"/>
			</g>
		</g>
		<g>
			<g>
				<path style="fill:#15142A;" d="M621.272,193.614c-0.361-1.516-0.91-2.956-1.639-4.332c-0.116-0.219-0.448-0.025-0.332,0.194
					c0.715,1.348,1.247,2.756,1.601,4.24C620.959,193.956,621.329,193.855,621.272,193.614L621.272,193.614z"/>
			</g>
		</g>
		<g>
			<g>
				<path style="fill:#15142A;" d="M617.306,193.836c-0.359-1.517-0.894-2.964-1.623-4.342c-0.116-0.219-0.447-0.025-0.332,0.194
					c0.715,1.35,1.233,2.765,1.584,4.25C616.992,194.178,617.363,194.076,617.306,193.836L617.306,193.836z"/>
			</g>
		</g>
		<path style="fill:#D24433;" d="M563.979,255.848c22.293,7.409,32.977,2.701,32.977,2.701c-3.516-12.838-3.505-22.051-3.505-22.051
			c-14.678,1.431-20.91-6.067-42.608-7.567"/>
		<g>
			<g>
				<path style="fill:#EEEEF1;" d="M587.66,235.867c-0.375,7.984,0.538,15.939,2.544,23.67c0.096,0.372,0.673,0.214,0.576-0.159
					c-1.993-7.682-2.896-15.579-2.523-23.511C588.275,235.482,587.678,235.484,587.66,235.867L587.66,235.867z"/>
			</g>
		</g>
		<path style="fill:#15142A;" d="M480.254,196.299c2.212,1.114,3.476,5.007,2.822,8.696c-0.479,2.698-2.286,4.582-3.854,4.94
			c-0.678-3.939-0.874-7.04-0.909-9.254c-0.022-1.38-0.074-3.215,0.405-4.923C479.135,195.749,479.831,196.086,480.254,196.299z"/>
		<path style="fill:#15142A;" d="M624.857,233.785c-1.843-1.637-1.98-5.671-0.307-9.009c1.223-2.442,3.513-3.764,5.141-3.695
			c-0.034,2.969-1.977,10.663-3.488,13.62C625.792,234.6,625.208,234.098,624.857,233.785z"/>
		<g>
			<g>
				<path style="fill:#FFFFFF;" d="M532.354,227.609c1.753,4.322,6.402,6.375,10.771,6.948c4.473,0.586,9.603-0.137,13.129-3.152
					c0.293-0.25-0.132-0.671-0.422-0.422c-3.307,2.828-8.141,3.505-12.338,3.023c-4.188-0.481-8.872-2.385-10.563-6.555
					C532.788,227.099,532.21,227.253,532.354,227.609L532.354,227.609z"/>
			</g>
		</g>
		<g>
			<g>
				<path style="fill:#FFFFFF;" d="M522.454,241.439c-6.593,7.73-7.075,19.745-1.053,27.948c0.225,0.307,0.744,0.009,0.516-0.301
					c-5.855-7.976-5.471-19.684,0.96-27.224C523.124,241.57,522.704,241.146,522.454,241.439L522.454,241.439z"/>
			</g>
		</g>
	</g>
	<g>
		
			<ellipse style="fill:none;stroke:#0E133A;stroke-width:1.1826;stroke-miterlimit:10;" cx="355.799" cy="384.872" rx="22.588" ry="3.872"/>
		<path style="fill:none;stroke:#0E133A;stroke-width:1.1826;stroke-miterlimit:10;" d="M376.612,398.191
			c-3.429,1.39-11.457,2.365-20.813,2.365c-8.749,0-16.336-0.852-20.088-2.099"/>
		<path style="fill:none;stroke:#0E133A;stroke-width:1.1826;stroke-miterlimit:10;" d="M374.629,410.015
			c-4.046,1.044-10.969,1.732-18.83,1.732c-7.326,0-13.838-0.598-17.965-1.524"/>
		<path style="fill:none;stroke:#0E133A;stroke-width:1.1826;stroke-miterlimit:10;" d="M372.434,420.753
			c-4.129,0.77-10.053,1.252-16.635,1.252c-6.51,0-12.376-0.472-16.499-1.227"/>
		
			<ellipse style="fill:none;stroke:#0E133A;stroke-width:1.1826;stroke-miterlimit:10;" cx="355.799" cy="430.219" rx="15.278" ry="2.619"/>
		
			<line style="fill:none;stroke:#0E133A;stroke-width:1.1826;stroke-miterlimit:10;" x1="333.211" y1="384.485" x2="340.565" y2="430.171"/>
		
			<line style="fill:none;stroke:#0E133A;stroke-width:1.1826;stroke-miterlimit:10;" x1="371.033" y1="430.171" x2="378.387" y2="384.485"/>
		
			<line style="fill:none;stroke:#0E133A;stroke-width:1.1826;stroke-miterlimit:10;" x1="355.799" y1="388.743" x2="355.799" y2="432.838"/>
		
			<line style="fill:none;stroke:#0E133A;stroke-width:1.1826;stroke-miterlimit:10;" x1="368.827" y1="388.12" x2="364.328" y2="432.262"/>
		
			<line style="fill:none;stroke:#0E133A;stroke-width:1.1826;stroke-miterlimit:10;" x1="342.396" y1="388.12" x2="347.176" y2="432.573"/>
	</g>
	<path style="fill:#0E133A;" d="M514.402,442.315c0-2.147-1.74-3.887-3.887-3.887c-2.147,0-3.887,1.74-3.887,3.887
		c0,2.147,1.74,3.887,3.887,3.887C512.662,446.203,514.402,444.462,514.402,442.315z"/>
	<path style="fill:#0E133A;" d="M535.646,442.315c0-2.147-1.74-3.887-3.887-3.887c-2.147,0-3.887,1.74-3.887,3.887
		c0,2.147,1.74,3.887,3.887,3.887C533.905,446.203,535.646,444.462,535.646,442.315z"/>
	<path style="fill:#0E133A;" d="M554.569,442.315c0-2.147-1.74-3.887-3.887-3.887c-2.147,0-3.887,1.74-3.887,3.887
		c0,2.147,1.74,3.887,3.887,3.887C552.828,446.203,554.569,444.462,554.569,442.315z"/>
	<polygon style="fill:#FFFFFF;" points="365.544,173.39 319.2,153.08 330.184,143.498 	"/>
	<polygon style="fill:#FFFFFF;" points="339.24,139.467 365.544,173.39 349.371,140.881 	"/>
	<polygon style="fill:#0E133A;" points="339.24,139.467 338.025,145.169 330.184,143.498 365.544,173.39 	"/>
	<g>
		<path style="fill:#84C7EB;" d="M207.43,180.569c-12.885-4.587-40.277-11.721-67.202,0.844
			c-12.006,5.603-5.296,22.122,3.508,24.523c0,0,4.002,25.613,7.204,42.422c0,0,8.804,5.603,24.012,5.603
			c15.208,0,27.414-5.403,27.414-5.403s2.49-25.608,1.689-46.618C204.056,201.939,213.774,182.827,207.43,180.569z"/>
		<path style="fill:#0E133A;" d="M207.679,431.484l0.808,12.006c0,0,8.087,5.169,24.179,5.629l-10.989-9.164l-2.081-11.406
			L207.679,431.484z"/>
		<path style="fill:#0E133A;" d="M153.545,430.535l0.908,11.999c0,0,8.13,5.102,24.225,5.428l-11.065-9.073l-2.176-11.389
			L153.545,430.535z"/>
		<path style="fill:#D24433;" d="M202.567,246.956c0,0-27.414,9.005-51.933,0.23c0,0-9.48,21.293-2.211,51.151
			c7.269,29.857,18.541,82.829,1.518,136.514c0,0,10.067,5.986,21.085,2.355c0,0,24.738-57.983,24.538-94.551
			c0,0,19.16,34.194,9.786,93.533c0,0,8.31,5.638,19.629,1.665c0,0,13.898-36.358,15.069-66.083
			c1.17-29.725-7.311-60.172-17.995-83.229C213.784,270.7,205.055,253.421,202.567,246.956z"/>
		<g>
			<g>
				<path style="fill:#EEEEF1;" d="M154.446,436.287c7.194-22.86,12.658-46.386,12.465-70.474
					c-0.076-9.464-0.908-18.909-1.932-28.312c-1.6-14.701-5.38-29.039-8.04-43.559c-2.735-14.923-4.125-30.047-0.288-44.901
					c0.102-0.397-0.511-0.566-0.614-0.169c-7.088,27.438,3.366,54.97,7.442,82.016c1.536,10.194,2.416,20.608,2.72,30.913
					c0.296,10.054-0.27,20.105-1.707,30.06c-2.17,15.04-6.104,29.78-10.659,44.256C153.709,436.51,154.323,436.677,154.446,436.287
					L154.446,436.287z"/>
			</g>
		</g>
		<g>
			<g>
				<path style="fill:#EEEEF1;" d="M170.359,250.85c-3.533,4.975-9.44,7.869-15.524,7.76c-0.41-0.007-0.41,0.629,0,0.636
					c6.32,0.114,12.409-2.916,16.073-8.075C171.146,250.837,170.595,250.518,170.359,250.85L170.359,250.85z"/>
			</g>
		</g>
		<g>
			<g>
				<path style="fill:#EEEEF1;" d="M175.479,251.198c-4.193,7.55-12.502,11.731-21.013,11.658c-0.41-0.004-0.41,0.633,0,0.636
					c8.728,0.075,17.264-4.233,21.563-11.973C176.227,251.161,175.678,250.84,175.479,251.198L175.479,251.198z"/>
			</g>
		</g>
		<g>
			<g>
				<path style="fill:#EEEEF1;" d="M148.311,254.881c0.869,0.672,1.847,1.109,2.937,1.272c0.4,0.06,0.573-0.553,0.169-0.614
					c-0.973-0.145-1.875-0.504-2.656-1.108C148.441,254.183,147.988,254.63,148.311,254.881L148.311,254.881z"/>
			</g>
		</g>
		<g>
			<g>
				<path style="fill:#EEEEF1;" d="M150.355,258.879c-1.049-0.057-2.01-0.385-2.883-0.968c-0.342-0.228-0.66,0.323-0.321,0.549
					c0.965,0.644,2.047,0.992,3.204,1.055C150.765,259.537,150.763,258.901,150.355,258.879L150.355,258.879z"/>
			</g>
		</g>
		<g>
			<g>
				<path style="fill:#EEEEF1;" d="M187.033,250.639c2.055,8.192,2.337,17.353,0.719,25.647c-0.078,0.4,0.535,0.571,0.613,0.169
					c1.642-8.415,1.366-17.671-0.719-25.986C187.547,250.074,186.934,250.242,187.033,250.639L187.033,250.639z"/>
			</g>
		</g>
		<g>
			<g>
				<path style="fill:#EEEEF1;" d="M204.115,251.292c-2.512,0.087-4.774-1.055-6.322-3.012c-0.254-0.321-0.701,0.132-0.45,0.45
					c1.648,2.083,4.106,3.29,6.772,3.198C204.523,251.914,204.525,251.277,204.115,251.292L204.115,251.292z"/>
			</g>
		</g>
		<g>
			<g>
				<path style="fill:#EEEEF1;" d="M205.564,255.122c-4.744,0.443-9.475-1.727-12.122-5.712c-0.226-0.339-0.777-0.021-0.549,0.321
					c2.766,4.163,7.7,6.492,12.672,6.027C205.969,255.72,205.973,255.083,205.564,255.122L205.564,255.122z"/>
			</g>
		</g>
		<g>
			<g>
				<path style="fill:#EEEEF1;" d="M206.08,431.97c3.378,1.32,7.03,1.918,10.644,2.063c3.464,0.138,7.048-0.122,10.343-1.263
					c0.401-0.139,0.229-0.779-0.176-0.639c-6.4,2.214-14.382,1.642-20.634-0.8C205.859,431.175,205.687,431.816,206.08,431.97
					L206.08,431.97z"/>
			</g>
		</g>
		<g>
			<g>
				<path style="fill:#EEEEF1;" d="M150.852,430.369c6.957,2.736,14.811,3.52,22.187,2.401c0.42-0.064,0.242-0.703-0.176-0.639
					c-7.262,1.101-14.992,0.29-21.835-2.401C150.632,429.574,150.459,430.215,150.852,430.369L150.852,430.369z"/>
			</g>
		</g>
		<g>
			<g>
				<path style="fill:#EEEEF1;" d="M203.822,202.883c1.787-3.127,3.678-6.314,4.468-9.866c0.092-0.416-0.547-0.593-0.639-0.176
					c-0.777,3.498-2.641,6.629-4.401,9.708C203.037,202.919,203.61,203.254,203.822,202.883L203.822,202.883z"/>
			</g>
		</g>
		<g>
			<g>
				<path style="fill:#EEEEF1;" d="M186.968,287.906c2.457,6.81,4.13,13.909,5.49,21.011c1.498,7.827,2.589,15.759,3.02,23.719
					c0.205,3.785,0.257,7.587-0.032,11.37c-0.031,0.408,0.605,0.406,0.636,0c0.55-7.206-0.023-14.502-0.887-21.66
					c-0.949-7.871-2.353-15.704-4.272-23.398c-0.944-3.784-2.018-7.541-3.342-11.211
					C187.443,287.354,186.828,287.519,186.968,287.906L186.968,287.906z"/>
			</g>
		</g>
		<path style="fill:#0E133A;" d="M184.852,246.467l-13.93-2.147c-1.637-0.252-2.76-1.785-2.508-3.422l4.39-28.48
			c0.252-1.638,1.785-2.76,3.422-2.508l13.929,2.147c1.637,0.252,2.76,1.785,2.508,3.422l-4.39,28.481
			C188.022,245.596,186.49,246.719,184.852,246.467z"/>
		<path style="fill:#EEEEF1;" d="M183.157,218.981c0.131-0.852-0.453-1.649-1.305-1.781c-0.852-0.131-1.649,0.453-1.781,1.305
			c-0.131,0.852,0.453,1.649,1.305,1.781C182.229,220.417,183.026,219.833,183.157,218.981z"/>
		<g>
			<path style="fill:#E89C3B;" d="M171.837,222.996c3.579,0.31,6.901,0.53,9.294,0.495c2.826-0.041,4.531-0.096,4.979,1.298
				c0.331,1.03-0.287,1.947-0.932,2.498c0.826,0.456,1.38,1.109,1.396,2.014c0.019,1.044-0.902,1.605-1.93,2.083
				c0.751,0.464,1.338,1.061,1.353,1.917c0.021,1.149-1.043,1.786-2.243,2.208c0.308,0.399,0.554,0.871,0.508,1.386
				c-0.148,1.647-3.383,3.232-7.195,3.446c-10.914,0.613-9.085-2.487-9.408-7.174c-0.003-0.046-0.006-0.092-0.008-0.138
				c-0.281-5.153-1.335-9.079,4.006-13.027L171.837,222.996z"/>
			<g>
				<g>
					<path style="fill:#161616;" d="M180.1,227.975c1.737,0.06,3.443-0.1,5.14-0.474c0.269-0.059,0.155-0.472-0.114-0.413
						c-1.661,0.366-3.327,0.517-5.026,0.458C179.824,227.537,179.825,227.965,180.1,227.975L180.1,227.975z"/>
				</g>
			</g>
			<g>
				<g>
					<path style="fill:#161616;" d="M178.941,236.316c1.737,0.06,3.443-0.1,5.14-0.474c0.269-0.059,0.155-0.472-0.114-0.413
						c-1.662,0.366-3.327,0.517-5.026,0.459C178.665,235.878,178.666,236.306,178.941,236.316L178.941,236.316z"/>
				</g>
			</g>
			<g>
				<g>
					<path style="fill:#161616;" d="M179.717,232.009c1.739,0.062,3.447-0.08,5.146-0.454c0.269-0.059,0.155-0.472-0.114-0.413
						c-1.661,0.366-3.335,0.499-5.033,0.439C179.442,231.571,179.442,231.999,179.717,232.009L179.717,232.009z"/>
				</g>
			</g>
		</g>
		<path style="fill:#E89C3B;" d="M159.089,200.667c0,0-8.492,3.227-12.781,5.842c-6.841,4.169-15.197,11.734-10.016,19.893
			c6.545,10.305,26.386-0.458,35.222-5.51c-1.829,1.477,1.415,17.554,1.415,17.554c-21.598,16.658-50.74,14.993-57.785-8.396
			c-4.896-16.254,3.906-33.821,16.483-41.528c13.063-8.006,22.119-9.111,22.119-9.111L159.089,200.667z"/>
		<path style="fill:#84C7EB;" d="M175.938,175.508c-5.876-5.413-43.301,0.844-56.236,25.306c0,0,7.671,11.001,17.152,14.34
			c0,0,5.342-8.716,19.964-13.215C174.026,196.644,181.814,180.921,175.938,175.508z"/>
		<g>
			<g>
				<path style="fill:#FFFFFF;" d="M122.821,195.902c4.277,6.329,10.745,11.841,17.539,15.29c0.339,0.172,0.639-0.338,0.299-0.511
					c-6.703-3.402-13.104-8.829-17.327-15.077C123.12,195.29,122.607,195.585,122.821,195.902L122.821,195.902z"/>
			</g>
		</g>
		<path style="fill:#0E133A;" d="M120.803,231.994c-1.905-2.192-4.618-2.861-6.217-2.387c1.021,4.237,2.34,5.689,3.52,7.704
			c0.735,1.256,2.872,3.834,4.236,5.132C123.999,241.03,123.407,234.991,120.803,231.994z"/>
		<g>
			<g>
				<g>
					<path style="fill:#E89C3B;" d="M203.179,182.645c0,0,17.596,9.054,33.585,3.155c15.988-5.899,16.337-25.628,15.222-32.529
						c0,0-0.508-3.243,0.925-5.656c1.217-2.613,3.262-4.993,4.71-6.389c0.317-0.306,0.659-0.609,1.078-0.745
						c0.419-0.136,0.937-0.061,1.206,0.289c0.243,0.317,0.224,0.759,0.162,1.154c-0.143,0.919-0.468,1.804-0.926,2.614
						c1.37-0.217,2.824-0.663,3.681-1.177c1.398-0.839,2.6-1.962,3.84-3.021c0.374-0.319,0.77-0.643,1.248-0.759
						c0.478-0.116,1.059,0.041,1.277,0.482c0.054,0.109,0.078,0.222,0.085,0.337c1.459-1.26,2.412-0.812,2.741-0.496
						c0.352,0.338,0.331,0.855,0.175,1.343c0.998-0.596,1.866-0.737,2.665,0.243c0.453,0.555,0.209,1.456-0.469,2.466
						c0.128,0.083,0.242,0.194,0.33,0.345c0.411,0.71,0.049,1.678-0.366,2.347c-1.486,2.397-4.005,4.6-6.529,5.485
						c1.293,5.669,2.618,16.089-1.025,27.724c-6.348,20.27-25.621,37.827-61.612,26.299L203.179,182.645z"/>
				</g>
				<path style="fill:#84C7EB;" d="M198.475,203.588c20.484,9.598,34.881,5.777,34.881,5.777
					c-4.646-11.613-1.738-22.311-1.738-22.311c-16.315-1.424-31.499-16.607-59.054-12.671"/>
				<g>
					<g>
						<path style="fill:#FFFFFF;" d="M225.521,186.033c-2.308,7.764-2.422,16.641,0.872,24.143c0.145,0.33,0.629,0.045,0.485-0.283
							c-3.231-7.359-3.077-16.103-0.815-23.711C226.166,185.835,225.624,185.687,225.521,186.033L225.521,186.033z"/>
					</g>
				</g>
				<path style="fill:#0E133A;" d="M262.945,185.299c-2.384-0.297-5.526,2.267-7.018,5.727c-1.092,2.531-0.673,5.118,0.389,6.291
					c2.697-2.928,4.551-5.422,5.789-7.26c0.772-1.145,1.818-2.657,2.368-4.357C264.143,185.46,263.4,185.355,262.945,185.299z"/>
			</g>
			<g>
				<g>
					<path style="fill:#0E133A;" d="M266.83,148.706c1.233-0.546,2.333-1.27,3.371-2.127c1.137-0.94,2.381-2.459,3.928-2.594
						c0.266-0.023,0.269-0.442,0-0.419c-1.297,0.113-2.257,1.03-3.208,1.845c-1.346,1.153-2.669,2.211-4.303,2.934
						C266.373,148.453,266.586,148.814,266.83,148.706L266.83,148.706z"/>
				</g>
			</g>
			<g>
				<g>
					<path style="fill:#0E133A;" d="M264.634,147.067c1.783-0.977,3.529-2.036,5.073-3.368c0.891-0.769,1.678-1.659,2.65-2.33
						c0.22-0.152,0.011-0.515-0.211-0.362c-0.886,0.612-1.616,1.395-2.413,2.111c-1.598,1.437-3.431,2.557-5.309,3.586
						C264.186,146.835,264.397,147.197,264.634,147.067L264.634,147.067z"/>
				</g>
			</g>
			<g>
				<g>
					<path style="fill:#0E133A;" d="M256.885,151.907c0.547-1.839,2.783-2.771,4.472-1.859c0.237,0.128,0.449-0.233,0.211-0.362
						c-1.929-1.041-4.462,0.007-5.087,2.109C256.404,152.054,256.808,152.165,256.885,151.907L256.885,151.907z"/>
				</g>
			</g>
			<g>
				<g>
					<path style="fill:#0E133A;" d="M263.233,145.428c2.326-1.075,4.188-2.975,6.034-4.703c0.197-0.185-0.1-0.48-0.296-0.296
						c-1.823,1.708-3.653,3.576-5.949,4.638C262.777,145.18,262.989,145.541,263.233,145.428L263.233,145.428z"/>
				</g>
			</g>
		</g>
		<g>
			<g>
				<path style="fill:#EEEEF1;" d="M159.047,177.52c8.526,6.932,22.208,6.05,30.523-0.792c0.33-0.271-0.142-0.738-0.469-0.469
					c-8.014,6.595-21.362,7.479-29.586,0.792C159.188,176.784,158.716,177.25,159.047,177.52L159.047,177.52z"/>
			</g>
		</g>
		<g>
			<path style="fill:#0E133A;" d="M161.824,153.611c-1.662-2.667,1.11-6.124,4.128-7.002c3.018-0.878,6.327-0.375,9.3-1.393
				c2.875-0.985,5.108-3.275,7.843-4.6c2.735-1.325,6.71-1.234,8.073,1.482c0.723,1.441,0.463,3.177-0.019,4.715
				c-1.402,4.47-4.609,8.345-8.738,10.558c-3.985,2.136-9.174,3.155-11.123,7.235c-0.68,1.424-0.857,3.075-1.719,4.396
				c-0.863,1.321-2.908,2.112-3.994,0.968c-0.907-0.956-0.52-2.492-0.662-3.803c-0.182-1.681-1.303-3.094-2.414-4.369
				c-1.111-1.275-2.301-2.595-2.679-4.243c-0.378-1.648,0.424-3.704,2.08-4.047"/>
		</g>
		<path style="fill:#E89C3B;" d="M179.921,175.589l-0.559-2.855c0,0,7.339,0.628,6.606-5.6c-1.277-10.848-0.998-13.863-5.847-16.627
			c-4.849-2.764-15.647,3.408-13.85,12.402l2.271,13.114c0,0,1.842,1.197,5.247,1.123
			C177.356,177.067,179.921,175.589,179.921,175.589z"/>
		<path style="fill:#1B172C;" d="M177.318,161.153c0.014,0.439,0.186,0.788,0.384,0.781c0.198-0.008,0.348-0.369,0.334-0.808
			c-0.014-0.439-0.186-0.789-0.384-0.781C177.454,160.352,177.305,160.714,177.318,161.153z"/>
		<path style="fill:#1B172C;" d="M182.969,160.906c0.014,0.439,0.186,0.788,0.384,0.781c0.198-0.008,0.347-0.369,0.334-0.808
			c-0.014-0.439-0.186-0.788-0.384-0.781C183.105,160.106,182.955,160.467,182.969,160.906z"/>
		<path style="fill:#1B172C;" d="M179.603,172.721c0,0-3.744-0.112-6.546-2.479l6.906,5.531L179.603,172.721z"/>
		<path style="fill:#161616;" d="M169.427,164.28c0.092-2.085,1.882-3.715,3.998-3.64c2.116,0.075,3.757,1.826,3.666,3.911
			c-0.092,2.085-1.882,3.714-3.998,3.639C170.977,168.115,169.336,166.365,169.427,164.28z"/>
		<g>
			<path style="fill:#E89C3B;" d="M183.919,163.866c0.048-1.101,0.578-2.066,1.372-2.729c0.198,1.69,0.401,3.651,0.677,5.997
				c0.009,0.078,0.003,0.142,0.009,0.218C184.702,166.703,183.852,165.377,183.919,163.866z"/>
			<path style="fill:#161616;" d="M183.919,163.866c0.048-1.101,0.578-2.066,1.372-2.729c0.198,1.69,0.401,3.651,0.677,5.997
				c0.009,0.078,0.003,0.142,0.009,0.218C184.702,166.703,183.852,165.377,183.919,163.866z"/>
		</g>
		<polygon style="fill:#161616;" points="181.272,158.109 180.256,158.073 180.009,163.682 182.449,163.768 		"/>
		<path style="fill:#1B172C;" d="M176.57,157.851c0.137,0.264,0.629,0.279,1.098,0.034c0.47-0.246,0.739-0.659,0.602-0.923
			c-0.137-0.264-0.629-0.279-1.099-0.034C176.702,157.174,176.433,157.587,176.57,157.851z"/>
		<path style="fill:#1B172C;" d="M182.387,156.249c-0.105,0.281,0.213,0.651,0.709,0.828c0.497,0.177,0.984,0.094,1.089-0.187
			c0.105-0.28-0.213-0.651-0.71-0.828C182.979,155.885,182.491,155.968,182.387,156.249z"/>
		<path style="fill:#E89C3B;" d="M162.884,164.3c0.08-1.827,1.649-3.255,3.503-3.189c1.854,0.065,3.292,1.6,3.212,3.426
			c-0.081,1.827-1.649,3.255-3.503,3.189C164.242,167.661,162.804,166.127,162.884,164.3z"/>
		<g>
			<g>
				<path style="fill:#161616;" d="M165.539,163.244c0.953-0.104,1.878,0.583,1.942,1.566c0.018,0.278,0.453,0.28,0.435,0
					c-0.078-1.202-1.174-2.132-2.377-2.001C165.264,162.839,165.26,163.275,165.539,163.244L165.539,163.244z"/>
			</g>
		</g>
		<g>
			<path style="fill:#0E133A;" d="M163.785,157.98c0.523,1.197,1.157,2.41,2.221,3.167c1.063,0.758,2.665,0.908,3.614,0.01
				c1.063-1.007,0.877-2.761,1.594-4.038c1.268-2.258,4.476-2.074,7.059-2.254c2.583-0.18,5.751-2.451,4.458-4.695
				c-0.468-0.813-1.392-1.238-2.282-1.534c-6.045-2.007-13.225,0.059-17.278,4.973"/>
		</g>
		<g>
			<path style="fill:#FFFFFF;" d="M181.002,166.395c0.485,0.016,1.27-0.247,1.558-0.769c0.102-0.185,0.273-0.591-0.09-0.761
				c-0.363-0.171-0.8,0.215-1.233,0.197c-0.424-0.017-0.953-0.638-1.496-0.429c-0.407,0.157-0.566,0.406-0.534,0.753
				c0.048,0.516,0.764,1.029,1.719,1.026"/>
		</g>
	</g>
	
		<path style="fill:none;stroke:#FFFFFF;stroke-width:0.8;stroke-linecap:round;stroke-miterlimit:10;stroke-dasharray:3.3741,5.6236;" d="
		M186.581,201.178c-0.786-9.368,7.263-20.096,17.148-20.178c3.262-0.027,10.452,4.321,6.512,7.816
		c-4.852,4.306-9.358-4.407-10.38-8.093c-3.679-13.277,3.069-25.648,14.316-29.585c9.075-3.176,32.36-1.445,26.794,10.382
		c-2.106,4.476-7.805,4.318-11.285,1.563c-3.659-2.897-4.624-7.86-4.633-12.28c-0.011-5.375,1.169-10.839,3.042-15.857
		c6.384-17.108,22.42-27.781,40.333-29.653c21.745-2.272,52.118,11.899,61.595,30.662"/>
	<circle style="fill:#FFFFFF;" cx="552" cy="144.002" r="8.998"/>
	<circle style="fill:none;stroke:#0E133A;stroke-miterlimit:10;" cx="465.967" cy="135.5" r="16.033"/>
	<path style="fill:none;stroke:#FFFFFF;stroke-width:1.1247;stroke-miterlimit:10;" d="M394,132c0,2.485-2.014,4.499-4.499,4.499
		c-2.485,0-4.499-2.014-4.499-4.499s2.014-4.499,4.499-4.499C391.986,127.501,394,129.515,394,132z"/>
	<circle style="fill:#0E133A;" cx="338.188" cy="85.812" r="9.812"/>
	
		<ellipse transform="matrix(0.2324 -0.9726 0.9726 0.2324 -221.0835 279.1008)" style="fill:none;stroke:#D24433;stroke-width:1.1247;stroke-miterlimit:10;" cx="66.273" cy="279.611" rx="13.497" ry="13.497"/>
	<circle style="fill:#FFFFFF;" cx="122" cy="329" r="8.435"/>
	<circle style="fill:none;stroke:#0E133A;stroke-width:1.1247;stroke-miterlimit:10;" cx="264.228" cy="292.665" r="5.061"/>
	
		<ellipse transform="matrix(0.1773 -0.9842 0.9842 0.1773 -8.5988 650.3953)" style="fill:#FFFFFF;" cx="384.701" cy="330.341" rx="13.497" ry="13.497"/>
	
		<ellipse transform="matrix(0.9486 -0.3164 0.3164 0.9486 -74.3436 225.459)" style="fill:none;stroke:#D24433;stroke-width:1.1247;stroke-miterlimit:10;" cx="657" cy="341.628" rx="12.372" ry="12.372"/>
	<circle style="fill:#0E133A;" cx="652" cy="282" r="7.873"/>
</g>
<g id="DESIGNED_BY_FREEPIK">
	<g>
		<g>
			<g id="XMLID_197_">
				<g id="XMLID_216_">
					<path id="XMLID_224_" style="fill:#A9B6C4;" d="M385.104,478.112c-0.432,0.443-0.803,0.931-1.108,1.453l-0.465-0.241
						c-0.067-0.298-0.349-0.502-0.659-0.466c-0.331,0.039-0.568,0.339-0.529,0.67c0.039,0.331,0.339,0.568,0.67,0.529
						c0.066-0.008,0.127-0.026,0.184-0.052l0.451,0.234c-0.251,0.554-0.433,1.139-0.539,1.744l0.746,0.132
						c0.23-1.306,0.85-2.507,1.792-3.473L385.104,478.112z"/>
					<path id="XMLID_223_" style="fill:#A9B6C4;" d="M390.592,475.81c-0.171,0-0.341,0.006-0.51,0.017l-0.074-0.626
						c0.188-0.149,0.296-0.389,0.266-0.645c-0.046-0.393-0.402-0.674-0.795-0.628c-0.393,0.046-0.674,0.402-0.628,0.795
						c0.03,0.254,0.189,0.461,0.404,0.564l0.074,0.624c-0.714,0.116-1.403,0.332-2.06,0.646l0.327,0.684
						c0.934-0.447,1.942-0.673,2.995-0.673c0.496,0,0.993,0.053,1.475,0.158l0.161-0.741
						C391.692,475.868,391.142,475.81,390.592,475.81z"/>
					<path id="XMLID_222_" style="fill:#A9B6C4;" d="M397.194,478.357c0.331-0.04,0.566-0.341,0.526-0.672
						c-0.04-0.331-0.341-0.566-0.672-0.526c-0.309,0.038-0.535,0.304-0.53,0.609l-0.416,0.363c-0.418-0.43-0.889-0.813-1.408-1.139
						l-0.404,0.641c1.134,0.715,2.021,1.726,2.563,2.925l0.69-0.313c-0.251-0.554-0.568-1.072-0.942-1.545l0.402-0.351
						C397.065,478.362,397.129,478.365,397.194,478.357z"/>
					<path id="XMLID_221_" style="fill:#A9B6C4;" d="M390.044,486.018c-0.386,0.023-0.775,0.035-1.157,0.035
						c-0.88,0-1.733-0.061-2.478-0.179c-0.39-0.062-0.846-0.155-1.27-0.292c1.046,1.861,3.069,3.125,5.388,3.125
						c2.855,0,5.262-1.916,5.95-4.504c-0.682,0.449-1.505,0.825-2.459,1.123C392.839,485.693,391.463,485.933,390.044,486.018z"/>
					<path id="XMLID_217_" style="fill:#A9B6C4;" d="M390.592,477.326c-3.352,0-6.08,2.666-6.08,5.944
						c0,0.426,0.046,0.849,0.137,1.261c0.673,0.483,2.706,0.89,5.348,0.731c2.879-0.173,5.297-0.957,6.672-2.159
						c-0.006-0.195-0.021-0.39-0.045-0.582C396.244,479.559,393.65,477.326,390.592,477.326z M388.432,483.841
						c-1.02,0-1.85-0.83-1.85-1.85c0-1.02,0.83-1.85,1.85-1.85c1.02,0,1.85,0.83,1.85,1.85
						C390.282,483.011,389.452,483.841,388.432,483.841z M393.17,482.932c-0.75,0-1.36-0.61-1.36-1.36c0-0.75,0.61-1.361,1.36-1.361
						c0.75,0,1.361,0.61,1.361,1.361C394.53,482.322,393.92,482.932,393.17,482.932z"/>
				</g>
				<path id="XMLID_214_" style="fill:#A9B6C4;" d="M406.595,479.193c-0.295-0.116-0.805-0.309-1.382-0.237
					c-0.551,0.068-0.844,0.34-0.844,1.007v0.866h2.228v1.717h-2.228V488h-1.932v-5.455h-1.34v-1.717h1.34v-0.888
					c0-1.68,0.896-2.783,2.568-2.783c0.643,0,1.157,0.122,1.59,0.308L406.595,479.193z"/>
				<path id="XMLID_212_" style="fill:#A9B6C4;" d="M411.298,482.525c-0.177-0.03-0.358-0.046-0.526-0.046
					c-0.895,0-1.51,0.548-1.51,1.613V488h-1.932v-7.172h1.873v0.785c0.451-0.674,1.14-0.977,2.021-0.977
					c0.414,0,0.848,0.128,1.094,0.337L411.298,482.525z"/>
				<path id="XMLID_209_" style="fill:#A9B6C4;" d="M418.965,484.403c0,0.222-0.015,0.489-0.037,0.651h-5.085
					c0.207,1.036,0.933,1.488,1.843,1.488c0.622,0,1.295-0.252,1.813-0.688l1.133,1.243c-0.814,0.748-1.85,1.088-3.057,1.088
					c-2.198,0-3.723-1.495-3.723-3.753c0-2.257,1.48-3.797,3.627-3.797C417.544,480.636,418.958,482.168,418.965,484.403z
					 M413.851,483.737h3.175c-0.177-0.918-0.733-1.436-1.562-1.436C414.554,482.301,414.021,482.849,413.851,483.737z"/>
				<path id="XMLID_206_" style="fill:#A9B6C4;" d="M426.618,484.403c0,0.222-0.015,0.489-0.037,0.651h-5.085
					c0.207,1.036,0.932,1.488,1.843,1.488c0.622,0,1.295-0.252,1.814-0.688l1.132,1.243c-0.814,0.748-1.85,1.088-3.057,1.088
					c-2.198,0-3.723-1.495-3.723-3.753c0-2.257,1.48-3.797,3.627-3.797C425.197,480.636,426.611,482.168,426.618,484.403z
					 M421.504,483.737h3.175c-0.178-0.918-0.733-1.436-1.562-1.436C422.207,482.301,421.674,482.849,421.504,483.737z"/>
				<path id="XMLID_203_" style="fill:#A9B6C4;" d="M434.964,484.41c0,2.154-1.495,3.775-3.471,3.775
					c-0.962,0-1.643-0.378-2.109-0.933v3.708h-1.924v-10.133h1.887v0.792c0.466-0.585,1.155-0.984,2.139-0.984
					C433.469,480.636,434.964,482.257,434.964,484.41z M429.287,484.41c0,1.132,0.747,1.976,1.843,1.976
					c1.14,0,1.85-0.881,1.85-1.976c0-1.095-0.711-1.976-1.85-1.976C430.035,482.434,429.287,483.278,429.287,484.41z"/>
				<path id="XMLID_200_" style="fill:#A9B6C4;" d="M438.067,478.482c0,0.696-0.54,1.229-1.236,1.229
					c-0.696,0-1.229-0.533-1.229-1.229c0-0.696,0.533-1.243,1.229-1.243C437.527,477.238,438.067,477.786,438.067,478.482z
					 M437.809,488h-1.932v-7.172h1.932V488z"/>
				<path id="XMLID_198_" style="fill:#A9B6C4;" d="M441.032,483.382l2.702-2.554h2.368l-3.479,3.375l3.501,3.797h-2.376
					l-2.716-2.901V488H439.1v-10.658h1.932V483.382z"/>
			</g>
			<g>
				<path style="fill:#A9B6C4;" d="M309.412,487.935v-1.055c-0.527,0.718-1.391,1.23-2.387,1.23c-1.846,0-3.149-1.406-3.149-3.706
					c0-2.256,1.289-3.721,3.149-3.721c0.952,0,1.816,0.469,2.387,1.245v-3.765h1.099v9.77H309.412z M309.412,486.016v-3.208
					c-0.395-0.615-1.245-1.143-2.124-1.143c-1.421,0-2.27,1.172-2.27,2.739c0,1.567,0.85,2.724,2.27,2.724
					C308.168,487.129,309.017,486.632,309.412,486.016z"/>
				<path style="fill:#A9B6C4;" d="M311.932,484.39c0-2.051,1.465-3.706,3.486-3.706c2.139,0,3.398,1.67,3.398,3.794v0.279h-5.727
					c0.088,1.333,1.026,2.446,2.549,2.446c0.806,0,1.626-0.322,2.182-0.893l0.527,0.718c-0.703,0.703-1.655,1.084-2.812,1.084
					C313.44,488.111,311.932,486.602,311.932,484.39z M315.404,481.593c-1.509,0-2.256,1.274-2.315,2.358h4.643
					C317.718,482.896,317.015,481.593,315.404,481.593z"/>
				<path style="fill:#A9B6C4;" d="M319.607,486.997l0.571-0.791c0.469,0.542,1.362,1.011,2.329,1.011
					c1.084,0,1.67-0.513,1.67-1.216c0-1.714-4.38-0.659-4.38-3.281c0-1.098,0.952-2.036,2.636-2.036
					c1.201,0,2.051,0.454,2.622,1.026l-0.513,0.762c-0.424-0.513-1.201-0.894-2.109-0.894c-0.967,0-1.567,0.483-1.567,1.113
					c0,1.553,4.38,0.527,4.38,3.281c0,1.187-0.952,2.139-2.783,2.139C321.306,488.111,320.325,487.759,319.607,486.997z"/>
				<path style="fill:#A9B6C4;" d="M326.477,479.117c0-0.41,0.337-0.747,0.732-0.747c0.41,0,0.747,0.337,0.747,0.747
					c0,0.41-0.337,0.732-0.747,0.732C326.814,479.849,326.477,479.527,326.477,479.117z M326.667,487.935v-7.075h1.099v7.075
					H326.667z"/>
				<path style="fill:#A9B6C4;" d="M329.582,489.751l0.556-0.82c0.586,0.703,1.289,0.967,2.3,0.967c1.172,0,2.27-0.571,2.27-2.124
					v-1.011c-0.513,0.718-1.377,1.26-2.373,1.26c-1.845,0-3.149-1.377-3.149-3.662c0-2.27,1.289-3.677,3.149-3.677
					c0.952,0,1.802,0.469,2.373,1.245v-1.069h1.099v6.87c0,2.344-1.641,3.076-3.369,3.076
					C331.237,490.806,330.417,490.572,329.582,489.751z M334.709,485.899v-3.091c-0.381-0.615-1.23-1.143-2.109-1.143
					c-1.421,0-2.27,1.128-2.27,2.695c0,1.553,0.849,2.695,2.27,2.695C333.478,487.056,334.328,486.514,334.709,485.899z"/>
				<path style="fill:#A9B6C4;" d="M342.413,487.935v-4.629c0-1.245-0.63-1.641-1.582-1.641c-0.865,0-1.685,0.527-2.095,1.099v5.17
					h-1.099v-7.075h1.099v1.025c0.498-0.586,1.465-1.201,2.519-1.201c1.48,0,2.256,0.747,2.256,2.285v4.966H342.413z"/>
				<path style="fill:#A9B6C4;" d="M344.932,484.39c0-2.051,1.465-3.706,3.486-3.706c2.138,0,3.398,1.67,3.398,3.794v0.279h-5.727
					c0.088,1.333,1.025,2.446,2.549,2.446c0.806,0,1.626-0.322,2.183-0.893l0.527,0.718c-0.703,0.703-1.655,1.084-2.812,1.084
					C346.441,488.111,344.932,486.602,344.932,484.39z M348.404,481.593c-1.509,0-2.256,1.274-2.314,2.358h4.643
					C350.718,482.896,350.015,481.593,348.404,481.593z"/>
				<path style="fill:#A9B6C4;" d="M358.35,487.935v-1.055c-0.527,0.718-1.392,1.23-2.388,1.23c-1.846,0-3.149-1.406-3.149-3.706
					c0-2.256,1.289-3.721,3.149-3.721c0.952,0,1.817,0.469,2.388,1.245v-3.765h1.098v9.77H358.35z M358.35,486.016v-3.208
					c-0.396-0.615-1.245-1.143-2.124-1.143c-1.421,0-2.27,1.172-2.27,2.739c0,1.567,0.849,2.724,2.27,2.724
					C357.105,487.129,357.954,486.632,358.35,486.016z"/>
				<path style="fill:#A9B6C4;" d="M364.692,487.935v-9.77h1.099v3.765c0.572-0.776,1.421-1.245,2.388-1.245
					c1.845,0,3.149,1.465,3.149,3.721c0,2.299-1.304,3.706-3.149,3.706c-0.996,0-1.86-0.513-2.388-1.23v1.055H364.692z
					 M367.9,487.129c1.436,0,2.286-1.157,2.286-2.724c0-1.568-0.85-2.739-2.286-2.739c-0.864,0-1.728,0.527-2.109,1.143v3.208
					C366.171,486.632,367.036,487.129,367.9,487.129z"/>
				<path style="fill:#A9B6C4;" d="M372.529,489.707c0.161,0.073,0.425,0.117,0.601,0.117c0.483,0,0.806-0.161,1.055-0.747
					l0.469-1.069l-2.959-7.148h1.187l2.358,5.801l2.344-5.801h1.201l-3.545,8.51c-0.425,1.025-1.143,1.421-2.08,1.435
					c-0.234,0-0.601-0.044-0.806-0.103L372.529,489.707z"/>
			</g>
		</g>
	</g>
</g>
</svg>
